<svg width="480px" height="360px" xmlns="http://www.w3.org/2000/svg"><rect x="216" y="124" width="80.5" height="80.5" fill-opacity="0"></rect><path fill="#F00" d="M240 180L240 173.600L243.200 173.600L243.200 160.800L240 160.800L240 157.600L243.200 157.600L243.200 148L246.400 148L246.400 144.800L256 144.800L256 148L259.200 148L259.200 154.400L256 154.400L256 151.200L252.800 151.200L252.800 148L249.600 148L249.600 157.600L252.800 157.600L252.800 160.800L249.600 160.800L249.600 176.800L256 176.800L256 173.600L262.400 173.600L262.400 176.800L259.200 176.800L259.200 180L240 180Z"></path></svg>